<mxfile host="app.diagrams.net" modified="2021-04-04T12:09:29.875Z" agent="5.0 (Windows NT 10.0; Win64; x64) AppleWebKit/537.36 (KHTML, like Gecko) Chrome/89.0.4389.90 Safari/537.36" etag="J2jRyvKdM20E_8PQmNDQ" version="14.5.7" type="github">
  <diagram name="Page-1" id="c37626ed-c26b-45fb-9056-f9ebc6bb27b6">
    <mxGraphModel dx="1182" dy="1582" grid="1" gridSize="10" guides="1" tooltips="1" connect="1" arrows="1" fold="1" page="1" pageScale="1" pageWidth="1100" pageHeight="850" background="#ffffff" math="0" shadow="0">
      <root>
        <mxCell id="0" />
        <mxCell id="1" parent="0" />
        <mxCell id="8NVAOUmw6MS0x2K47sJc-6" value="&lt;font style=&quot;font-size: 24px&quot;&gt;ETL Layer&lt;/font&gt;" style="rounded=0;whiteSpace=wrap;html=1;labelPosition=center;verticalLabelPosition=top;align=center;verticalAlign=bottom;" vertex="1" parent="1">
          <mxGeometry x="570" y="1200" width="260" height="280" as="geometry" />
        </mxCell>
        <mxCell id="8NVAOUmw6MS0x2K47sJc-8" value="&lt;font style=&quot;font-size: 20px&quot;&gt;[Server Name]&lt;/font&gt;&lt;br style=&quot;font-size: 18px&quot;&gt;&lt;font color=&quot;#007fff&quot; style=&quot;font-size: 17px&quot;&gt;[Description]&lt;/font&gt;" style="aspect=fixed;perimeter=ellipsePerimeter;html=1;align=center;shadow=0;dashed=0;spacingTop=3;image;image=img/lib/active_directory/database_server.svg;labelPosition=center;verticalLabelPosition=top;verticalAlign=bottom;fontSize=22;" vertex="1" parent="1">
          <mxGeometry x="600" y="1370" width="73.8" height="90" as="geometry" />
        </mxCell>
        <mxCell id="8NVAOUmw6MS0x2K47sJc-16" value="&lt;font style=&quot;font-size: 30px&quot;&gt;Presentaion Layer&lt;/font&gt;" style="endArrow=none;dashed=1;html=1;fontSize=22;exitX=1;exitY=1;exitDx=0;exitDy=0;" edge="1" parent="1">
          <mxGeometry width="50" height="50" relative="1" as="geometry">
            <mxPoint x="29.998964534377947" y="-798.3553940469972" as="sourcePoint" />
            <mxPoint x="977.14" y="-800" as="targetPoint" />
          </mxGeometry>
        </mxCell>
        <mxCell id="8NVAOUmw6MS0x2K47sJc-18" value="Process Layer" style="endArrow=none;dashed=1;html=1;fontSize=22;exitX=1;exitY=1;exitDx=0;exitDy=0;" edge="1" parent="1">
          <mxGeometry width="50" height="50" relative="1" as="geometry">
            <mxPoint x="39.99896453437795" y="471.64460595300284" as="sourcePoint" />
            <mxPoint x="1040" y="470" as="targetPoint" />
          </mxGeometry>
        </mxCell>
        <mxCell id="8NVAOUmw6MS0x2K47sJc-23" value="&lt;font style=&quot;font-size: 24px&quot;&gt;ETL Layer&lt;/font&gt;" style="rounded=0;whiteSpace=wrap;html=1;labelPosition=center;verticalLabelPosition=top;align=center;verticalAlign=bottom;" vertex="1" parent="1">
          <mxGeometry x="40" y="1350" width="260" height="280" as="geometry" />
        </mxCell>
        <mxCell id="8NVAOUmw6MS0x2K47sJc-24" value="&lt;font style=&quot;font-size: 20px&quot;&gt;[Server Name]&lt;/font&gt;&lt;br style=&quot;font-size: 18px&quot;&gt;&lt;font color=&quot;#007fff&quot; style=&quot;font-size: 17px&quot;&gt;[Description]&lt;/font&gt;" style="aspect=fixed;perimeter=ellipsePerimeter;html=1;align=center;shadow=0;dashed=0;spacingTop=3;image;image=img/lib/active_directory/database_server.svg;labelPosition=center;verticalLabelPosition=top;verticalAlign=bottom;fontSize=22;" vertex="1" parent="1">
          <mxGeometry x="70" y="1520" width="73.8" height="90" as="geometry" />
        </mxCell>
        <mxCell id="8NVAOUmw6MS0x2K47sJc-25" value="ETL Layer" style="endArrow=none;dashed=1;html=1;fontSize=22;exitX=1;exitY=1;exitDx=0;exitDy=0;" edge="1" parent="1">
          <mxGeometry width="50" height="50" relative="1" as="geometry">
            <mxPoint x="42.85896453437795" y="1111.6446059530026" as="sourcePoint" />
            <mxPoint x="990" y="1110" as="targetPoint" />
          </mxGeometry>
        </mxCell>
        <mxCell id="8NVAOUmw6MS0x2K47sJc-28" value="" style="group" vertex="1" connectable="0" parent="1">
          <mxGeometry x="50" y="-350" width="412" height="360" as="geometry" />
        </mxCell>
        <mxCell id="8NVAOUmw6MS0x2K47sJc-19" value="&lt;font style=&quot;font-size: 24px&quot;&gt;SharePoint Farm&lt;br&gt;&lt;font color=&quot;#007fff&quot;&gt;Executives Portal - Leader NG&lt;/font&gt;&lt;br&gt;&lt;/font&gt;" style="rounded=0;whiteSpace=wrap;html=1;labelPosition=center;verticalLabelPosition=top;align=center;verticalAlign=bottom;" vertex="1" parent="8NVAOUmw6MS0x2K47sJc-28">
          <mxGeometry width="412" height="360" as="geometry" />
        </mxCell>
        <mxCell id="8NVAOUmw6MS0x2K47sJc-12" value="&lt;span style=&quot;font-size: 16px&quot;&gt;MKWEBP041&lt;/span&gt;&lt;br style=&quot;font-size: 18px&quot;&gt;&lt;font color=&quot;#007fff&quot;&gt;&lt;span style=&quot;font-size: 14px&quot;&gt;Portal Menahalim BI - WFE2.&amp;nbsp;&amp;nbsp;&lt;/span&gt;&lt;/font&gt;" style="aspect=fixed;perimeter=ellipsePerimeter;html=1;align=center;shadow=0;dashed=0;spacingTop=3;image;image=img/lib/active_directory/database_server.svg;labelPosition=center;verticalLabelPosition=top;verticalAlign=bottom;fontSize=22;" vertex="1" parent="8NVAOUmw6MS0x2K47sJc-28">
          <mxGeometry x="73.24444444444444" y="240" width="67.08450805008944" height="81.81037567084078" as="geometry" />
        </mxCell>
        <mxCell id="8NVAOUmw6MS0x2K47sJc-13" value="&lt;font style=&quot;font-size: 16px&quot;&gt;MKWEBP042&lt;/font&gt;&lt;br style=&quot;font-size: 18px&quot;&gt;&lt;font color=&quot;#007fff&quot;&gt;&lt;span style=&quot;font-size: 14px&quot;&gt;Portal Menahalim BI - WBE1.&amp;nbsp;&lt;/span&gt;&lt;/font&gt;" style="aspect=fixed;perimeter=ellipsePerimeter;html=1;align=center;shadow=0;dashed=0;spacingTop=3;image;image=img/lib/active_directory/database_server.svg;labelPosition=center;verticalLabelPosition=top;verticalAlign=bottom;fontSize=22;" vertex="1" parent="8NVAOUmw6MS0x2K47sJc-28">
          <mxGeometry x="73.24444444444444" y="64.61538461538461" width="67.08450805008944" height="81.81037567084078" as="geometry" />
        </mxCell>
        <mxCell id="8NVAOUmw6MS0x2K47sJc-14" value="&lt;font style=&quot;font-size: 16px&quot;&gt;MKWEBP043&lt;/font&gt;&lt;br style=&quot;font-size: 18px&quot;&gt;&lt;font color=&quot;#007fff&quot;&gt;&lt;span style=&quot;font-size: 14px&quot;&gt;Portal Menahalim BI - WBE2.&amp;nbsp;&lt;/span&gt;&lt;/font&gt;" style="aspect=fixed;perimeter=ellipsePerimeter;html=1;align=center;shadow=0;dashed=0;spacingTop=3;image;image=img/lib/active_directory/database_server.svg;labelPosition=center;verticalLabelPosition=top;verticalAlign=bottom;fontSize=22;" vertex="1" parent="8NVAOUmw6MS0x2K47sJc-28">
          <mxGeometry x="274.6666666666667" y="64.61538461538461" width="67.08450805008944" height="81.81037567084078" as="geometry" />
        </mxCell>
        <mxCell id="8NVAOUmw6MS0x2K47sJc-15" value="&lt;span style=&quot;font-size: 16px&quot;&gt;MKWEBP040&lt;br&gt;&lt;/span&gt;&lt;font color=&quot;#007fff&quot;&gt;&lt;span style=&quot;font-size: 14px&quot;&gt;Portal Menahalim BI - WFE1.&amp;nbsp;&amp;nbsp;&lt;/span&gt;&lt;/font&gt;" style="aspect=fixed;perimeter=ellipsePerimeter;html=1;align=center;shadow=0;dashed=0;spacingTop=3;image;image=img/lib/active_directory/database_server.svg;labelPosition=center;verticalLabelPosition=top;verticalAlign=bottom;fontSize=22;" vertex="1" parent="8NVAOUmw6MS0x2K47sJc-28">
          <mxGeometry x="274.6666666666667" y="240" width="67.08450805008944" height="81.81037567084078" as="geometry" />
        </mxCell>
        <mxCell id="8NVAOUmw6MS0x2K47sJc-29" value="" style="group" vertex="1" connectable="0" parent="1">
          <mxGeometry x="30" y="690" width="450" height="390" as="geometry" />
        </mxCell>
        <mxCell id="8NVAOUmw6MS0x2K47sJc-30" value="&lt;font style=&quot;font-size: 24px&quot;&gt;Froad detection&lt;br&gt;&lt;font color=&quot;#007fff&quot;&gt;SAS based system for anomally detection&lt;/font&gt;&lt;br&gt;&lt;/font&gt;" style="rounded=0;whiteSpace=wrap;html=1;labelPosition=center;verticalLabelPosition=top;align=center;verticalAlign=bottom;" vertex="1" parent="8NVAOUmw6MS0x2K47sJc-29">
          <mxGeometry width="450" height="390" as="geometry" />
        </mxCell>
        <mxCell id="8NVAOUmw6MS0x2K47sJc-31" value="&lt;span style=&quot;font-size: 16px&quot;&gt;MKAPPP177&lt;/span&gt;&lt;br style=&quot;font-size: 18px&quot;&gt;&lt;font color=&quot;#007fff&quot;&gt;&lt;span style=&quot;font-size: 14px&quot;&gt;ABM SAS Meta Data Server&lt;/span&gt;&lt;/font&gt;" style="aspect=fixed;perimeter=ellipsePerimeter;html=1;align=center;shadow=0;dashed=0;spacingTop=3;image;image=img/lib/active_directory/database_server.svg;labelPosition=center;verticalLabelPosition=top;verticalAlign=bottom;fontSize=22;" vertex="1" parent="8NVAOUmw6MS0x2K47sJc-29">
          <mxGeometry x="80" y="260" width="73.8" height="90" as="geometry" />
        </mxCell>
        <mxCell id="8NVAOUmw6MS0x2K47sJc-32" value="&lt;font style=&quot;font-size: 16px&quot;&gt;MKAPPP174&lt;/font&gt;&lt;br style=&quot;font-size: 18px&quot;&gt;&lt;font color=&quot;#007fff&quot;&gt;&lt;span style=&quot;font-size: 14px&quot;&gt;ABM Middle Tier App Server&lt;/span&gt;&lt;/font&gt;" style="aspect=fixed;perimeter=ellipsePerimeter;html=1;align=center;shadow=0;dashed=0;spacingTop=3;image;image=img/lib/active_directory/database_server.svg;labelPosition=center;verticalLabelPosition=top;verticalAlign=bottom;fontSize=22;" vertex="1" parent="8NVAOUmw6MS0x2K47sJc-29">
          <mxGeometry x="80" y="70" width="73.8" height="90" as="geometry" />
        </mxCell>
        <mxCell id="8NVAOUmw6MS0x2K47sJc-33" value="&lt;font style=&quot;font-size: 16px&quot;&gt;MKAPPP175&lt;/font&gt;&lt;br style=&quot;font-size: 18px&quot;&gt;&lt;font color=&quot;#007fff&quot;&gt;&lt;span style=&quot;font-size: 14px&quot;&gt;ABM SAS Calculation Servre&amp;nbsp;&lt;/span&gt;&lt;/font&gt;" style="aspect=fixed;perimeter=ellipsePerimeter;html=1;align=center;shadow=0;dashed=0;spacingTop=3;image;image=img/lib/active_directory/database_server.svg;labelPosition=center;verticalLabelPosition=top;verticalAlign=bottom;fontSize=22;" vertex="1" parent="8NVAOUmw6MS0x2K47sJc-29">
          <mxGeometry x="300" y="70" width="73.8" height="90" as="geometry" />
        </mxCell>
        <mxCell id="8NVAOUmw6MS0x2K47sJc-34" value="&lt;span style=&quot;font-size: 16px&quot;&gt;MKSQLP110&lt;/span&gt;&lt;br&gt;&lt;font color=&quot;#007fff&quot;&gt;&lt;span style=&quot;font-size: 14px&quot;&gt;ABM - SQL Server&amp;nbsp;&lt;/span&gt;&lt;/font&gt;" style="aspect=fixed;perimeter=ellipsePerimeter;html=1;align=center;shadow=0;dashed=0;spacingTop=3;image;image=img/lib/active_directory/database_server.svg;labelPosition=center;verticalLabelPosition=top;verticalAlign=bottom;fontSize=22;" vertex="1" parent="8NVAOUmw6MS0x2K47sJc-29">
          <mxGeometry x="300" y="260" width="73.8" height="90" as="geometry" />
        </mxCell>
        <mxCell id="8NVAOUmw6MS0x2K47sJc-35" value="" style="group" vertex="1" connectable="0" parent="1">
          <mxGeometry x="700" y="-140" width="360" height="390" as="geometry" />
        </mxCell>
        <mxCell id="8NVAOUmw6MS0x2K47sJc-36" value="&lt;font style=&quot;font-size: 24px&quot;&gt;Analisys Reporting Destribution&lt;br&gt;&lt;font color=&quot;#007fff&quot;&gt;SAP BO&lt;/font&gt;&lt;br&gt;&lt;/font&gt;" style="rounded=0;whiteSpace=wrap;html=1;labelPosition=center;verticalLabelPosition=top;align=center;verticalAlign=bottom;" vertex="1" parent="8NVAOUmw6MS0x2K47sJc-35">
          <mxGeometry width="360" height="390" as="geometry" />
        </mxCell>
        <mxCell id="8NVAOUmw6MS0x2K47sJc-37" value="&lt;font style=&quot;font-size: 16px&quot;&gt;MKAPPP015&lt;/font&gt;&lt;br style=&quot;font-size: 18px&quot;&gt;&lt;font color=&quot;#007fff&quot;&gt;&lt;span style=&quot;font-size: 14px&quot;&gt;BO 4 App Server&lt;/span&gt;&lt;/font&gt;" style="aspect=fixed;perimeter=ellipsePerimeter;html=1;align=center;shadow=0;dashed=0;spacingTop=3;image;image=img/lib/active_directory/database_server.svg;labelPosition=center;verticalLabelPosition=top;verticalAlign=bottom;fontSize=22;" vertex="1" parent="8NVAOUmw6MS0x2K47sJc-35">
          <mxGeometry x="64" y="260" width="59.04" height="72" as="geometry" />
        </mxCell>
        <mxCell id="8NVAOUmw6MS0x2K47sJc-38" value="&lt;font style=&quot;font-size: 16px&quot;&gt;MKWEBP070&lt;/font&gt;&lt;br style=&quot;font-size: 18px&quot;&gt;&lt;font color=&quot;#007fff&quot;&gt;&lt;span style=&quot;font-size: 14px&quot;&gt;Tomacat Web Server&amp;nbsp;&lt;/span&gt;&lt;/font&gt;" style="aspect=fixed;perimeter=ellipsePerimeter;html=1;align=center;shadow=0;dashed=0;spacingTop=3;image;image=img/lib/active_directory/database_server.svg;labelPosition=center;verticalLabelPosition=top;verticalAlign=bottom;fontSize=22;" vertex="1" parent="8NVAOUmw6MS0x2K47sJc-35">
          <mxGeometry x="64" y="70" width="59.04" height="72" as="geometry" />
        </mxCell>
        <mxCell id="8NVAOUmw6MS0x2K47sJc-39" value="&lt;font style=&quot;font-size: 16px&quot;&gt;MKWEBP068&lt;/font&gt;&lt;br style=&quot;font-size: 18px&quot;&gt;&lt;font color=&quot;#007fff&quot;&gt;&lt;span style=&quot;font-size: 14px&quot;&gt;Tomacat Web Server&amp;nbsp;&lt;/span&gt;&lt;/font&gt;" style="aspect=fixed;perimeter=ellipsePerimeter;html=1;align=center;shadow=0;dashed=0;spacingTop=3;image;image=img/lib/active_directory/database_server.svg;labelPosition=center;verticalLabelPosition=top;verticalAlign=bottom;fontSize=22;" vertex="1" parent="8NVAOUmw6MS0x2K47sJc-35">
          <mxGeometry x="239.99999999999997" y="70" width="59.04" height="72" as="geometry" />
        </mxCell>
        <mxCell id="8NVAOUmw6MS0x2K47sJc-40" value="&lt;font style=&quot;font-size: 16px&quot;&gt;MKAPPP212&lt;/font&gt;&lt;br style=&quot;font-size: 18px&quot;&gt;&lt;font color=&quot;#007fff&quot;&gt;&lt;span style=&quot;font-size: 14px&quot;&gt;BO 4 App Server&lt;/span&gt;&lt;/font&gt;" style="aspect=fixed;perimeter=ellipsePerimeter;html=1;align=center;shadow=0;dashed=0;spacingTop=3;image;image=img/lib/active_directory/database_server.svg;labelPosition=center;verticalLabelPosition=top;verticalAlign=bottom;fontSize=22;" vertex="1" parent="8NVAOUmw6MS0x2K47sJc-35">
          <mxGeometry x="239.99999999999997" y="260" width="59.04" height="72" as="geometry" />
        </mxCell>
        <mxCell id="8NVAOUmw6MS0x2K47sJc-17" value="&lt;font style=&quot;font-size: 30px&quot;&gt;Semantic Layer&lt;/font&gt;" style="endArrow=none;dashed=1;html=1;fontSize=22;exitX=1;exitY=1;exitDx=0;exitDy=0;" edge="1" parent="1">
          <mxGeometry width="50" height="50" relative="1" as="geometry">
            <mxPoint x="42.85896453437795" y="41.64460595300284" as="sourcePoint" />
            <mxPoint x="1070" y="40" as="targetPoint" />
          </mxGeometry>
        </mxCell>
        <mxCell id="8NVAOUmw6MS0x2K47sJc-43" value="" style="group" vertex="1" connectable="0" parent="1">
          <mxGeometry x="50" y="260" width="180" height="190" as="geometry" />
        </mxCell>
        <mxCell id="8NVAOUmw6MS0x2K47sJc-26" value="&lt;font style=&quot;font-size: 24px&quot;&gt;OLAP - SSAS&lt;/font&gt;" style="rounded=0;whiteSpace=wrap;html=1;labelPosition=center;verticalLabelPosition=top;align=center;verticalAlign=bottom;" vertex="1" parent="8NVAOUmw6MS0x2K47sJc-43">
          <mxGeometry width="180" height="190" as="geometry" />
        </mxCell>
        <mxCell id="8NVAOUmw6MS0x2K47sJc-11" value="&lt;font style=&quot;font-size: 16px&quot;&gt;MKSQLP154&lt;/font&gt;&lt;br style=&quot;font-size: 18px&quot;&gt;&lt;font color=&quot;#007fff&quot; style=&quot;font-size: 14px&quot;&gt;OLAP - frontent (n6)&lt;/font&gt;" style="aspect=fixed;perimeter=ellipsePerimeter;html=1;align=center;shadow=0;dashed=0;spacingTop=3;image;image=img/lib/active_directory/database_server.svg;labelPosition=center;verticalLabelPosition=top;verticalAlign=bottom;fontSize=22;" vertex="1" parent="8NVAOUmw6MS0x2K47sJc-43">
          <mxGeometry x="32" y="70" width="73.8" height="90" as="geometry" />
        </mxCell>
        <mxCell id="8NVAOUmw6MS0x2K47sJc-44" value="" style="group" vertex="1" connectable="0" parent="1">
          <mxGeometry x="50" y="-670" width="220" height="190" as="geometry" />
        </mxCell>
        <mxCell id="8NVAOUmw6MS0x2K47sJc-45" value="&lt;font style=&quot;font-size: 24px&quot;&gt;Reporting - SSRS&lt;/font&gt;" style="rounded=0;whiteSpace=wrap;html=1;labelPosition=center;verticalLabelPosition=top;align=center;verticalAlign=bottom;" vertex="1" parent="8NVAOUmw6MS0x2K47sJc-44">
          <mxGeometry width="220.00000000000003" height="190" as="geometry" />
        </mxCell>
        <mxCell id="8NVAOUmw6MS0x2K47sJc-46" value="&lt;font style=&quot;font-size: 16px&quot;&gt;MKSQLP090&lt;/font&gt;&lt;br style=&quot;font-size: 18px&quot;&gt;&lt;font color=&quot;#007fff&quot;&gt;&lt;span style=&quot;font-size: 14px&quot;&gt;SSRS 2016 for BI&lt;/span&gt;&lt;/font&gt;" style="aspect=fixed;perimeter=ellipsePerimeter;html=1;align=center;shadow=0;dashed=0;spacingTop=3;image;image=img/lib/active_directory/database_server.svg;labelPosition=center;verticalLabelPosition=top;verticalAlign=bottom;fontSize=22;" vertex="1" parent="8NVAOUmw6MS0x2K47sJc-44">
          <mxGeometry x="39.111111111111114" y="70" width="73.8" height="90" as="geometry" />
        </mxCell>
      </root>
    </mxGraphModel>
  </diagram>
</mxfile>
